<mxfile host="app.diagrams.net" modified="2020-12-19T01:57:49.101Z" agent="5.0 (Macintosh; Intel Mac OS X 11_0_1) AppleWebKit/537.36 (KHTML, like Gecko) Chrome/87.0.4280.88 Safari/537.36" etag="TZTCP2caOEE-8szugy9f" version="14.0.5" type="github">
  <diagram id="C5RBs43oDa-KdzZeNtuy" name="Page-1">
    <mxGraphModel dx="2206" dy="802" grid="1" gridSize="10" guides="1" tooltips="1" connect="1" arrows="1" fold="1" page="1" pageScale="1" pageWidth="827" pageHeight="1169" math="0" shadow="0">
      <root>
        <mxCell id="WIyWlLk6GJQsqaUBKTNV-0" />
        <mxCell id="WIyWlLk6GJQsqaUBKTNV-1" parent="WIyWlLk6GJQsqaUBKTNV-0" />
        <mxCell id="rRMFquyDc33VQYFmGEKK-0" value="" style="strokeWidth=1;shadow=0;dashed=0;align=center;html=1;shape=mxgraph.mockup.containers.browserWindow;rSize=0;strokeColor=#666666;strokeColor2=#008cff;strokeColor3=#c4c4c4;mainText=,;recursiveResize=0;" vertex="1" parent="WIyWlLk6GJQsqaUBKTNV-1">
          <mxGeometry x="-570" y="410.5" width="405.26" height="280" as="geometry" />
        </mxCell>
        <mxCell id="rRMFquyDc33VQYFmGEKK-1" value="Page 1" style="strokeWidth=1;shadow=0;dashed=0;align=center;html=1;shape=mxgraph.mockup.containers.anchor;fontSize=17;fontColor=#666666;align=left;" vertex="1" parent="rRMFquyDc33VQYFmGEKK-0">
          <mxGeometry x="60" y="12" width="110" height="26" as="geometry" />
        </mxCell>
        <mxCell id="rRMFquyDc33VQYFmGEKK-2" value="https://www.draw.io" style="strokeWidth=1;shadow=0;dashed=0;align=center;html=1;shape=mxgraph.mockup.containers.anchor;rSize=0;fontSize=17;fontColor=#666666;align=left;" vertex="1" parent="rRMFquyDc33VQYFmGEKK-0">
          <mxGeometry x="130" y="60" width="250" height="26" as="geometry" />
        </mxCell>
        <mxCell id="rRMFquyDc33VQYFmGEKK-3" value="&lt;font style=&quot;font-size: 20px&quot;&gt;React App&lt;/font&gt;" style="rounded=0;whiteSpace=wrap;html=1;fillColor=#fff2cc;strokeColor=#d6b656;" vertex="1" parent="rRMFquyDc33VQYFmGEKK-0">
          <mxGeometry x="97" y="140" width="180" height="90" as="geometry" />
        </mxCell>
        <mxCell id="rRMFquyDc33VQYFmGEKK-5" value="" style="endArrow=classic;html=1;" edge="1" parent="WIyWlLk6GJQsqaUBKTNV-1">
          <mxGeometry width="50" height="50" relative="1" as="geometry">
            <mxPoint x="-160" y="570" as="sourcePoint" />
            <mxPoint x="10" y="570" as="targetPoint" />
          </mxGeometry>
        </mxCell>
        <mxCell id="rRMFquyDc33VQYFmGEKK-6" value="&lt;font style=&quot;font-size: 14px&quot;&gt;{ email, password }&lt;/font&gt;" style="rounded=0;whiteSpace=wrap;html=1;fillColor=#dae8fc;strokeColor=#6c8ebf;" vertex="1" parent="WIyWlLk6GJQsqaUBKTNV-1">
          <mxGeometry x="-150" y="530" width="130" height="40" as="geometry" />
        </mxCell>
        <mxCell id="rRMFquyDc33VQYFmGEKK-12" value="" style="edgeStyle=orthogonalEdgeStyle;rounded=0;orthogonalLoop=1;jettySize=auto;html=1;" edge="1" parent="WIyWlLk6GJQsqaUBKTNV-1">
          <mxGeometry relative="1" as="geometry">
            <mxPoint x="300" y="536" as="sourcePoint" />
            <mxPoint x="340" y="536" as="targetPoint" />
            <Array as="points">
              <mxPoint x="320" y="536" />
              <mxPoint x="320" y="536" />
            </Array>
          </mxGeometry>
        </mxCell>
        <mxCell id="rRMFquyDc33VQYFmGEKK-7" value="" style="rounded=0;whiteSpace=wrap;html=1;" vertex="1" parent="WIyWlLk6GJQsqaUBKTNV-1">
          <mxGeometry x="10" y="483.5" width="290" height="133" as="geometry" />
        </mxCell>
        <mxCell id="rRMFquyDc33VQYFmGEKK-8" value="&lt;font style=&quot;font-size: 16px&quot;&gt;Express App&lt;/font&gt;" style="rounded=0;whiteSpace=wrap;html=1;" vertex="1" parent="WIyWlLk6GJQsqaUBKTNV-1">
          <mxGeometry x="30" y="520.5" width="110" height="60" as="geometry" />
        </mxCell>
        <mxCell id="rRMFquyDc33VQYFmGEKK-15" value="" style="edgeStyle=orthogonalEdgeStyle;rounded=0;orthogonalLoop=1;jettySize=auto;html=1;" edge="1" parent="WIyWlLk6GJQsqaUBKTNV-1">
          <mxGeometry relative="1" as="geometry">
            <mxPoint x="190" y="538" as="sourcePoint" />
            <mxPoint x="140" y="538" as="targetPoint" />
            <Array as="points">
              <mxPoint x="160" y="538" />
              <mxPoint x="160" y="538" />
            </Array>
          </mxGeometry>
        </mxCell>
        <mxCell id="rRMFquyDc33VQYFmGEKK-9" value="&lt;font style=&quot;font-size: 16px&quot;&gt;Mongoose&lt;/font&gt;" style="rounded=0;whiteSpace=wrap;html=1;" vertex="1" parent="WIyWlLk6GJQsqaUBKTNV-1">
          <mxGeometry x="190" y="520" width="90" height="60" as="geometry" />
        </mxCell>
        <mxCell id="rRMFquyDc33VQYFmGEKK-17" value="" style="edgeStyle=orthogonalEdgeStyle;rounded=0;orthogonalLoop=1;jettySize=auto;html=1;" edge="1" parent="WIyWlLk6GJQsqaUBKTNV-1">
          <mxGeometry relative="1" as="geometry">
            <mxPoint x="340" y="565" as="sourcePoint" />
            <mxPoint x="300" y="565" as="targetPoint" />
          </mxGeometry>
        </mxCell>
        <mxCell id="rRMFquyDc33VQYFmGEKK-10" value="&lt;font style=&quot;font-size: 16px&quot;&gt;MongoDB Instance&lt;/font&gt;" style="rounded=0;whiteSpace=wrap;html=1;" vertex="1" parent="WIyWlLk6GJQsqaUBKTNV-1">
          <mxGeometry x="340" y="500" width="160" height="100" as="geometry" />
        </mxCell>
        <mxCell id="rRMFquyDc33VQYFmGEKK-16" value="" style="edgeStyle=orthogonalEdgeStyle;rounded=0;orthogonalLoop=1;jettySize=auto;html=1;entryX=-0.012;entryY=0.507;entryDx=0;entryDy=0;entryPerimeter=0;" edge="1" parent="WIyWlLk6GJQsqaUBKTNV-1">
          <mxGeometry relative="1" as="geometry">
            <mxPoint x="140" y="565.4137931034483" as="sourcePoint" />
            <mxPoint x="188.92000000000007" y="565.42" as="targetPoint" />
            <Array as="points">
              <mxPoint x="165" y="566" />
            </Array>
          </mxGeometry>
        </mxCell>
      </root>
    </mxGraphModel>
  </diagram>
</mxfile>
